<svg xmlns="http://www.w3.org/2000/svg" viewBox="0 0 746.4 397.9"><defs><style>.cls-1{fill:#54b948;}.cls-2{fill:#f89728;}.cls-3{fill:#fff;}.cls-4{fill:#00a4e4;}</style></defs><title>Asset 1</title><g id="Layer_2" data-name="Layer 2"><g id="LOGO"><path class="cls-1" d="M1.9,275.5H13.6c8.2,0,13.3,3.5,13.3,10.8s-5.1,10.8-13.3,10.8H6v18.8H1.9ZM6,293.4h6.6c7.4,0,9.9-3.2,9.9-7.1s-2.5-7-9.9-7H6Z"/><path class="cls-1" d="M46,316.6c-8.3,0-14.1-6-14.1-14a13.64,13.64,0,0,1,14.1-14c8.3,0,14.2,6,14.2,14S54.3,316.6,46,316.6Zm0-24.7c-6.2,0-10,4.6-10,10.6s3.9,10.6,10,10.6,10.1-4.6,10.1-10.6S52.2,291.9,46,291.9Z"/><path class="cls-1" d="M68.2,289.2l6.2,21.7h.1l7.1-21.7h3.9l7.1,21.7h.1l6.2-21.7h4.4l-8.4,26.7H90.7L83.6,294h-.1l-7.1,21.9H72.2l-8.4-26.7Z"/><path class="cls-1" d="M110.8,303.6c.5,5.4,4.5,9.6,9.8,9.6a10.18,10.18,0,0,0,8.6-4.6l2.9,2.4a13.86,13.86,0,0,1-11.5,5.6,13.57,13.57,0,0,1-13.8-14c0-8,5.9-14,13.5-14,8.1.1,12.8,6,12.8,13.3v1.7Zm18.1-3.1c0-5.1-3.2-8.6-8.7-8.6-4.9,0-9.3,4.2-9.3,8.6Z"/><path class="cls-1" d="M140.3,297.5c0-2.4-.1-4.4-.2-8.3h3.7v5h.1a8.74,8.74,0,0,1,8.6-5.6,11.43,11.43,0,0,1,2.8.3l-.7,3.7a5.73,5.73,0,0,0-2.2-.3c-5.7,0-8.3,5-8.3,8.6v15h-3.8V297.5Z"/><path class="cls-1" d="M161.5,281.7a2.69,2.69,0,0,1-2.7-2.7,2.75,2.75,0,0,1,2.7-2.7,2.7,2.7,0,1,1,0,5.4Zm1.9,34.2h-3.8V289.2h3.8Z"/><path class="cls-1" d="M176.1,289.2a31,31,0,0,1,.2,4.3h.1a10.83,10.83,0,0,1,8.9-5c6.8,0,10,3.8,10,10.4v16.9h-3.8V301c0-5.9-1.7-9.2-7.2-9.2-.8,0-8.1.5-8.1,10.3v13.7h-3.8V295c0-1.4-.2-3.9-.3-5.9h4Z"/><path class="cls-1" d="M206.2,321.2a12.47,12.47,0,0,0,10.2,4.9c7.6,0,10.4-4.7,10.4-10.5v-4.8h-.1a11.44,11.44,0,0,1-10,5,13.56,13.56,0,0,1-13.9-13.6c0-7.8,5.7-13.8,13.6-13.8a12.4,12.4,0,0,1,10.3,5.1h.1v-4.4h3.8v26.5c0,5.8-2.3,13.9-14.3,13.9a16.28,16.28,0,0,1-12.8-5.4Zm10.6-8.7a9.82,9.82,0,0,0,10.1-10.3c0-5.6-3.8-10.3-10.1-10.3a10.31,10.31,0,0,0,0,20.6Z"/><path class="cls-1" d="M274.9,308.4l13.6-32.8h6.3V316h-4.1V281h-.1L276,315.9h-2.2L259.2,281h-.1v34.9H255V275.5h6.3Z"/><path class="cls-1" d="M317.2,316.6c-8.3,0-14.1-6-14.1-14a13.64,13.64,0,0,1,14.1-14c8.3,0,14.2,6,14.2,14S325.5,316.6,317.2,316.6Zm0-24.7c-6.2,0-10,4.6-10,10.6s3.9,10.6,10,10.6,10.1-4.6,10.1-10.6S323.4,291.9,317.2,291.9Z"/><path class="cls-1" d="M364.8,315.9H361v-4.4h-.1a12.71,12.71,0,0,1-10.4,5.1c-8.3,0-14.2-6-14.2-14s5.9-14,14.2-14a12.84,12.84,0,0,1,10.4,5.1h.1V272.8h3.8Zm-14.2-2.8a10.6,10.6,0,1,0,0-21.2c-6.2,0-10.1,4.6-10.1,10.6S344.3,313.1,350.6,313.1Z"/><path class="cls-1" d="M375.6,303.6c.5,5.4,4.5,9.6,9.8,9.6a10.18,10.18,0,0,0,8.6-4.6l2.9,2.4a13.86,13.86,0,0,1-11.5,5.6,13.57,13.57,0,0,1-13.8-14c0-8,5.9-14,13.5-14,8.1.1,12.8,6,12.8,13.3v1.7Zm18.2-3.1c0-5.1-3.2-8.6-8.7-8.6-4.9,0-9.3,4.2-9.3,8.6Z"/><path class="cls-1" d="M405.1,297.5c0-2.4-.1-4.4-.2-8.3h3.7v5h.1a8.74,8.74,0,0,1,8.6-5.6,11.43,11.43,0,0,1,2.8.3l-.7,3.7a5.72,5.72,0,0,0-2.2-.3c-5.7,0-8.3,5-8.3,8.6v15h-3.8V297.5Z"/><path class="cls-1" d="M428.3,289.2a31,31,0,0,1,.2,4.3h.1a10.83,10.83,0,0,1,8.9-5c6.8,0,10,3.8,10,10.4v16.9h-3.8V301c0-5.9-1.7-9.2-7.2-9.2-.8,0-8.1.5-8.1,10.3v13.7h-3.8V295c0-1.4-.2-3.9-.3-5.9h4Z"/><path class="cls-1" d="M508,309.5c-2.7,4.2-8.3,7.4-14.9,7.4-12,0-21-9-21-21.2s9-21.2,21-21.2a17.76,17.76,0,0,1,14,6.4l-3.6,2.7c-1.6-2.6-6.1-5.3-10.4-5.3-10.4,0-16.6,8.2-16.6,17.4s6.2,17.4,16.6,17.4a13.09,13.09,0,0,0,11.6-6Z"/><path class="cls-1" d="M526.3,316.6c-8.3,0-14.1-6-14.1-14a13.64,13.64,0,0,1,14.1-14c8.3,0,14.2,6,14.2,14S534.6,316.6,526.3,316.6Zm0-24.7c-6.2,0-10,4.6-10,10.6s3.9,10.6,10,10.6,10.1-4.6,10.1-10.6S532.5,291.9,526.3,291.9Z"/><path class="cls-1" d="M547.3,295.1c0-2-.2-3.9-.3-5.9h4v4h.1a10.07,10.07,0,0,1,8.6-4.7c2.9,0,6.7,1,8.5,5.5a9.73,9.73,0,0,1,8.8-5.5c6.8,0,10,3.8,10,10.4v16.9h-3.8V300.2c0-5.4-1.5-8.4-6.7-8.4-5.6,0-7.5,4.8-7.5,9.7v14.2h-3.8V300.1c0-5.4-1.5-8.4-6.7-8.4-.9,0-7.5.5-7.5,10.3v13.7h-3.8V295.1Z"/><path class="cls-1" d="M595.9,295.1c0-2-.2-3.9-.3-5.9h4v4h.1a10.07,10.07,0,0,1,8.6-4.7c2.9,0,6.7,1,8.5,5.5a9.73,9.73,0,0,1,8.8-5.5c6.8,0,10,3.8,10,10.4v16.9h-3.8V300.2c0-5.4-1.5-8.4-6.7-8.4-5.6,0-7.5,4.8-7.5,9.7v14.2h-3.8V300.1c0-5.4-1.5-8.4-6.7-8.4-.9,0-7.5.5-7.5,10.3v13.7h-3.8V295.1Z"/><path class="cls-1" d="M647,303.6c.5,5.4,4.5,9.6,9.8,9.6a10.18,10.18,0,0,0,8.6-4.6l2.9,2.4a13.86,13.86,0,0,1-11.5,5.6,13.57,13.57,0,0,1-13.8-14c0-8,5.9-14,13.5-14,8.1.1,12.8,6,12.8,13.3v1.7Zm18.2-3.1c0-5.1-3.2-8.6-8.7-8.6-4.9,0-9.3,4.2-9.3,8.6Z"/><path class="cls-1" d="M676.5,297.5c0-2.4-.1-4.4-.2-8.3H680v5h.1a8.74,8.74,0,0,1,8.6-5.6,11.43,11.43,0,0,1,2.8.3l-.7,3.7a5.72,5.72,0,0,0-2.2-.3c-5.7,0-8.3,5-8.3,8.6v15h-3.8V297.5Z"/><path class="cls-1" d="M713.4,295.5a8.14,8.14,0,0,0-6.7-3.5c-6.2-.1-10,4.5-10,10.6s3.8,10.7,10,10.6a8.14,8.14,0,0,0,6.7-3.5l3.1,2.3a12.64,12.64,0,0,1-9.7,4.6c-8.7.1-14.1-6-14.1-14s5.4-14.1,14.1-14a12.82,12.82,0,0,1,9.7,4.6Z"/><path class="cls-1" d="M724.1,303.6c.5,5.4,4.5,9.6,9.8,9.6a10.18,10.18,0,0,0,8.6-4.6l2.9,2.4a13.86,13.86,0,0,1-11.5,5.6,13.57,13.57,0,0,1-13.8-14c0-8,5.9-14,13.5-14,8.1.1,12.8,6,12.8,13.3v1.7Zm18.1-3.1c0-5.1-3.2-8.6-8.7-8.6-4.9,0-9.3,4.2-9.3,8.6Z"/><path class="cls-1" d="M5,357.6l6.2,21.7h.1l7.1-21.7h3.9l7.1,21.7h.1l6.2-21.7h4.4l-8.4,26.7H27.5l-7.1-21.9h-.1l-7.1,21.9H9L.6,357.6Z"/><path class="cls-1" d="M47.8,350.1a2.69,2.69,0,0,1-2.7-2.7,2.75,2.75,0,0,1,2.7-2.7,2.69,2.69,0,0,1,2.7,2.7A2.75,2.75,0,0,1,47.8,350.1Zm1.8,34.2H45.8V357.6h3.8Z"/><path class="cls-1" d="M72.5,361H64.8v15.7c0,4,1.5,4.8,3.9,4.8a9,9,0,0,0,3.9-1l.2,3.5a13.23,13.23,0,0,1-5.1,1c-2.9,0-6.6-1.3-6.6-7.1V361H55.5v-3.4h5.6v-7.5h3.8v7.5h7.7V361Z"/><path class="cls-1" d="M77.6,341.2h3.8v20.7h.1a10.83,10.83,0,0,1,8.9-5c6.8,0,10,3.8,10,10.4v16.9H96.6V369.4c0-5.9-1.7-9.2-7.2-9.2-.8,0-8.1.5-8.1,10.3v13.7H77.5v-43Z"/><path class="cls-1" d="M126.1,343.9h13.4c10.1,0,21.2,6.7,21.2,20.2s-11.1,20.2-21.2,20.2H126.1V343.9Zm4.1,36.6h8c12.3,0,18.1-8.1,18.1-16.4s-5.8-16.4-18.1-16.4h-8Z"/><path class="cls-1" d="M177.4,379.7l8.2-22.1h4.6l-13.3,33.6c-1.6,4.1-3.8,6.7-8.4,6.7a14.47,14.47,0,0,1-3.5-.4l.4-3.6a5.61,5.61,0,0,0,2.9.6c2.6,0,4-1.8,5.1-4.8l1.9-5.1-10.9-27h4.7Z"/><path class="cls-1" d="M198.6,357.6a31,31,0,0,1,.2,4.3h.1a10.83,10.83,0,0,1,8.9-5c6.8,0,10,3.8,10,10.4v16.9H214V369.4c0-5.9-1.7-9.2-7.2-9.2-.8,0-8.1.5-8.1,10.3v13.7h-3.8V363.4c0-1.4-.2-3.9-.3-5.9h4Z"/><path class="cls-1" d="M243.8,367.9v-.7c0-4.6-2.2-6.9-6.8-6.9a12.3,12.3,0,0,0-8.2,3.1l-2.3-2.7c2.5-2.5,6.3-3.9,11.3-3.9,5.2,0,9.7,3,9.7,9.5v11.9a33.67,33.67,0,0,0,.5,6h-3.6a30,30,0,0,1-.3-4.3H244c-2.2,3.5-5.1,5-9.4,5-4.7,0-9.2-2.6-9.2-7.8,0-8.7,10.2-9.2,16.6-9.2Zm-2,3.1c-3.8,0-12.4.3-12.4,5.6,0,3.5,3.2,4.9,6.3,4.9,5.5,0,8.1-3.9,8.1-8.6V371Z"/><path class="cls-1" d="M256.2,363.5c0-2-.2-3.9-.3-5.9h4v4h.1a10.07,10.07,0,0,1,8.6-4.7c2.9,0,6.7,1,8.5,5.5a9.73,9.73,0,0,1,8.8-5.5c6.8,0,10,3.8,10,10.4v16.9h-3.8V368.6c0-5.4-1.5-8.4-6.7-8.4-5.6,0-7.5,4.8-7.5,9.7v14.2h-3.8V368.5c0-5.4-1.5-8.4-6.7-8.4-.9,0-7.5.5-7.5,10.3v13.7h-3.7Z"/><path class="cls-1" d="M307.5,350.1a2.69,2.69,0,0,1-2.7-2.7,2.75,2.75,0,0,1,2.7-2.7,2.7,2.7,0,0,1,0,5.4Zm1.9,34.2h-3.8V357.6h3.8Z"/><path class="cls-1" d="M337.9,363.9a8.14,8.14,0,0,0-6.7-3.5c-6.2-.1-10,4.5-10,10.6s3.8,10.7,10,10.6a8.14,8.14,0,0,0,6.7-3.5l3.1,2.3a12.64,12.64,0,0,1-9.7,4.6c-8.7.1-14.1-6-14.1-14s5.4-14.1,14.1-14a12.82,12.82,0,0,1,9.7,4.6Z"/><path class="cls-1" d="M366.6,343.9h11.7c8.2,0,13.3,3.5,13.3,10.8s-5.1,10.8-13.3,10.8h-7.6v18.8h-4.1Zm4.1,17.9h6.6c7.4,0,9.9-3.2,9.9-7.1s-2.5-7-9.9-7h-6.6Z"/><path class="cls-1" d="M398.3,365.9c0-2.4-.1-4.4-.2-8.3h3.7v5h.1a8.74,8.74,0,0,1,8.6-5.6,11.43,11.43,0,0,1,2.8.3l-.7,3.7a5.72,5.72,0,0,0-2.2-.3c-5.7,0-8.3,5-8.3,8.6v15h-3.8V365.9Z"/><path class="cls-1" d="M419.6,350.1a2.69,2.69,0,0,1-2.7-2.7,2.75,2.75,0,0,1,2.7-2.7,2.69,2.69,0,0,1,2.7,2.7A2.75,2.75,0,0,1,419.6,350.1Zm1.8,34.2h-3.8V357.6h3.8Z"/><path class="cls-1" d="M449.9,363.9a8.14,8.14,0,0,0-6.7-3.5c-6.2-.1-10,4.5-10,10.6s3.8,10.7,10,10.6a8.14,8.14,0,0,0,6.7-3.5l3.1,2.3a12.64,12.64,0,0,1-9.7,4.6c-8.7.1-14.1-6-14.1-14s5.4-14.1,14.1-14a12.82,12.82,0,0,1,9.7,4.6Z"/><path class="cls-1" d="M460.7,350.1a2.69,2.69,0,0,1-2.7-2.7,2.75,2.75,0,0,1,2.7-2.7,2.7,2.7,0,1,1,0,5.4Zm1.9,34.2h-3.8V357.6h3.8Z"/><path class="cls-1" d="M475.3,357.6a31,31,0,0,1,.2,4.3h.1a10.83,10.83,0,0,1,8.9-5c6.8,0,10,3.8,10,10.4v16.9h-3.8V369.4c0-5.9-1.7-9.2-7.2-9.2-.8,0-8.1.5-8.1,10.3v13.7h-3.8V363.4c0-1.4-.2-3.9-.3-5.9h4Z"/><path class="cls-1" d="M505.4,389.6a12.47,12.47,0,0,0,10.2,4.9c7.6,0,10.4-4.7,10.4-10.5v-4.8h-.1a11.44,11.44,0,0,1-10,5A13.56,13.56,0,0,1,502,370.6c0-7.8,5.7-13.8,13.6-13.8a12.4,12.4,0,0,1,10.3,5.1h.1v-4.4h3.8V384c0,5.8-2.3,13.9-14.3,13.9a16.28,16.28,0,0,1-12.8-5.4Zm10.6-8.7a9.82,9.82,0,0,0,10.1-10.3c0-5.6-3.8-10.3-10.1-10.3a10.31,10.31,0,0,0,0,20.6Z"/><path class="cls-1" d="M577,350.6a8.9,8.9,0,0,0-7.8-3.9c-4.2,0-8.6,2.2-8.6,7.3,0,10.9,20.7,5.1,20.7,19.7,0,7.4-6.9,11.7-13.3,11.7-4.9,0-9.6-1.8-12.7-6l3.7-2.7c1.7,3,5,4.9,9.2,4.9,4,0,8.7-2.6,8.7-7.4,0-11.4-20.7-5.1-20.7-19.8,0-7.8,6.5-11.5,13.1-11.5,4.6,0,8.2,1.3,11.4,4.9Z"/><path class="cls-1" d="M607.7,363.9a8.14,8.14,0,0,0-6.7-3.5c-6.2-.1-10,4.5-10,10.6s3.8,10.7,10,10.6a8.14,8.14,0,0,0,6.7-3.5l3.1,2.3a12.64,12.64,0,0,1-9.7,4.6c-8.7.1-14.1-6-14.1-14s5.4-14.1,14.1-14a12.82,12.82,0,0,1,9.7,4.6Z"/><path class="cls-1" d="M618.5,350.1a2.69,2.69,0,0,1-2.7-2.7,2.75,2.75,0,0,1,2.7-2.7,2.69,2.69,0,0,1,2.7,2.7A2.75,2.75,0,0,1,618.5,350.1Zm1.8,34.2h-3.8V357.6h3.8Z"/><path class="cls-1" d="M632,372c.5,5.4,4.5,9.6,9.8,9.6a10.18,10.18,0,0,0,8.6-4.6l2.9,2.4a13.86,13.86,0,0,1-11.5,5.6A13.57,13.57,0,0,1,628,371c0-8,5.9-14,13.5-14,8.1.1,12.8,6,12.8,13.3V372Zm18.2-3.1c0-5.1-3.2-8.6-8.7-8.6-4.9,0-9.3,4.2-9.3,8.6Z"/><path class="cls-1" d="M664.7,357.6a31,31,0,0,1,.2,4.3h.1a10.83,10.83,0,0,1,8.9-5c6.8,0,10,3.8,10,10.4v16.9h-3.7V369.4c0-5.9-1.7-9.2-7.2-9.2-.8,0-8.1.5-8.1,10.3v13.7h-3.8V363.4c0-1.4-.2-3.9-.3-5.9h3.9Z"/><path class="cls-1" d="M712.2,363.9a8.14,8.14,0,0,0-6.7-3.5c-6.2-.1-10,4.5-10,10.6s3.8,10.7,10,10.6a8.14,8.14,0,0,0,6.7-3.5l3.1,2.3a12.64,12.64,0,0,1-9.7,4.6c-8.7.1-14.1-6-14.1-14s5.4-14.1,14.1-14a12.82,12.82,0,0,1,9.7,4.6Z"/><path class="cls-1" d="M722.9,372c.5,5.4,4.5,9.6,9.8,9.6a10.18,10.18,0,0,0,8.6-4.6l2.9,2.4a13.86,13.86,0,0,1-11.5,5.6,13.57,13.57,0,0,1-13.8-14c0-8,5.9-14,13.5-14,8.1.1,12.8,6,12.8,13.3V372Zm18.1-3.1c0-5.1-3.2-8.6-8.7-8.6-4.9,0-9.3,4.2-9.3,8.6Z"/><path class="cls-2" d="M745.4,183.5a24.9,24.9,0,1,1-24.9-24.9,24.9,24.9,0,0,1,24.9,24.9"/><path class="cls-3" d="M706,183.7a14.7,14.7,0,1,1,14.7,14.6A14.58,14.58,0,0,1,706,183.7Zm27.1,0a12.4,12.4,0,1,0-12.4,12.4A12.46,12.46,0,0,0,733.1,183.7Zm-5.5,7.9h-2.7l-4.8-7.4h-2.7v7.4h-2.2v-16h7c2.9,0,5.7.8,5.7,4.2,0,3.1-2.2,4.3-5.1,4.4Zm-7.5-9.6c2,0,5.5.4,5.5-2.2,0-1.6-2.2-2-3.9-2h-4.3v4.1h2.7Z"/><path class="cls-4" d="M163.2,201.9h50.6V146.3c-17.6,1.6-34.5,2.9-50.6,4Z"/><path class="cls-4" d="M262.2,201.9h63l-47.9-62.4c-17.5,2.2-34.7,4-51.4,5.6Z"/><path class="cls-4" d="M654.1,57.3,672,22.4q-20.25,12.15-42,23a54.69,54.69,0,0,1,24.1,11.9"/><path class="cls-4" d="M634.2,83.1l-12.9-3.9c-8.8-2.8-22.5-7.2-22.5-18.6a2.77,2.77,0,0,1,.1-.9q-25.2,11-51.8,20.2c4.4,27.1,23.9,34.5,51.8,42.4,10.8,3.1,30.7,8,30.7,22.2,0,13.7-12.7,19.6-24.5,19.6-17.3,0-32.3-9-45-20.1l-21.7,40.8c19.9,13.9,43.9,22.2,68.5,22.2,19.6,0,40-5.4,55.3-18.3,15.5-13.2,20.2-33.1,20.2-52.5-.1-31.4-21.1-45.1-48.2-53.1"/><path class="cls-4" d="M480.1,101.2c0,33.6-24.8,58.1-55,58.1-22.6,0-42.1-13.7-50.6-34.7-17.7,3.3-35.4,6.2-52.8,8.8,12.7,45.3,52.2,75,103.3,75,62.5,0,107.7-44.4,107.7-107.5a100.78,100.78,0,0,0-1.3-15.7c-16.9,5.6-34.1,10.7-51.4,15.5a.9.9,0,0,1,.1.5"/><path class="cls-4" d="M.1,154.3V202H50.7V154.6c-31.9.3-50.6-.3-50.6-.3"/><path class="cls-4" d="M370.1,100.5a26.2,26.2,0,0,0,.1,2.8h.1c-.1-1.2-.1-2.4-.2-3.6v.8"/><path class="cls-4" d="M306.6,66.4c0-41.6-29.2-59.9-67.7-59.9H163.2V128.1c34.7-2.3,73.2-5.7,113.6-10.7,19.4-8.8,29.8-28.6,29.8-51m-52.7,3.1c0,21.2-18.6,24.3-35.1,24.3h-4.9V43.4h4.9c16.5,0,35.1,3.1,35.1,24.3v1.8"/><path class="cls-4" d="M613.3,1.3c-36,0-62.8,22.1-66.7,56.6,38.8-13.6,76-29.7,109.9-48.7-14.1-4.9-29.7-7.9-43.2-7.9"/><path class="cls-4" d="M425.1,0C369,0,317.4,41.3,317.4,100.2l1,11.6q25.65-3.75,51.8-8.5c0-.9-.1-1.8-.1-2.8V98.7c0-26.9,24.8-51.4,55-51.4,22.8,0,42.5,14,50.8,32.4,16.9-4.5,33.7-9.5,50.2-14.8C510.4,25.5,469.1,0,425.1,0"/><path class="cls-4" d="M148.3,70.6c0-44.7-28.9-64.1-70.8-64.1H0V132.2s45.2,1.5,114.5-1.4c22-9,33.8-28.5,33.8-60.2M95.6,72.1c0,23.8-18.1,23.8-36.4,23.8H50.7V45.5h8.5c19.6,0,36.4.3,36.4,24.8v1.8"/></g></g></svg>