<svg xmlns="http://www.w3.org/2000/svg" id="Layer_1" viewBox="-50.7 200.7 1416.2 500.2"><style id="style3">.st0{fill:#757575}</style><g id="g5"><path class="st0" d="M213.2 516.9L15.7 200.8h-54.5c-10.9 0-15.1 7.6-9.4 16.8L84.4 434l.7 1.1 89.8 143.8 38.3-62zm30.5-49.3c5.7-9.2 5.7-24.3 0-33.6l-134-216.5c-5.7-9.2-19.3-16.8-30.1-16.8h-55l193 308.9 26.1-42zm-112.2 56.2l-110.6 177h58.8c10.8 0 24.4-7.5 30.1-16.8l53.5-86.5c.2-.3.6-1 1.5-2.4l5.6-9.1-38.9-62.2zm-47.1-56.2L-48.2 684.1c-5.7 9.3-1.4 16.8 9.4 16.8h50.7L127 516.7l-38.6-61.9c-.5 4.8-1.8 9.3-4 12.8z" id="path7"/></g><g id="g9"><path class="st0" d="M418 442.5h77.1v96.3c-20.9 7.2-44 10.8-69.1 10.8-27.5 0-48.8-8-63.9-24-15-16-22.6-38.7-22.6-68.3 0-28.8 8.2-51.3 24.7-67.4 16.5-16.1 39.5-24.1 69.2-24.1 11.2 0 21.9 1.1 31.8 3.2 10 2.1 18.7 4.8 26.1 8.1L476 415c-12.9-6.4-27-9.5-42.4-9.5-14.1 0-25 4.6-32.7 13.8-7.7 9.2-11.6 22.3-11.6 39.3 0 16.7 3.5 29.4 10.5 38.2 7 8.8 17 13.1 30.1 13.1 7.2 0 13.8-.7 19.8-2.1v-28H418v-37.3zM668.4 454c0 29.8-8.2 52.8-24.6 68.9-16.4 16.1-39.5 24.2-69.2 24.2h-57.8V368.4h61.8c28.7 0 50.8 7.3 66.4 22 15.6 14.7 23.4 35.9 23.4 63.6zm-50.1 1.7c0-16.4-3.2-28.5-9.7-36.4s-16.3-11.9-29.5-11.9H565v100.1h10.8c14.7 0 25.4-4.3 32.3-12.8 6.8-8.5 10.2-21.5 10.2-39zm139.2-13.2h77.1v96.3c-20.9 7.2-44 10.8-69.1 10.8-27.5 0-48.8-8-63.9-24-15-16-22.6-38.7-22.6-68.3 0-28.8 8.2-51.3 24.7-67.4 16.5-16.1 39.5-24.1 69.2-24.1 11.2 0 21.9 1.1 31.8 3.2 10 2.1 18.7 4.8 26.1 8.1L815.5 415c-12.9-6.4-27-9.5-42.4-9.5-14.1 0-25 4.6-32.7 13.8-7.7 9.2-11.6 22.3-11.6 39.3 0 16.7 3.5 29.4 10.5 38.2 7 8.8 17 13.1 30.1 13.1 7.2 0 13.8-.7 19.8-2.1v-28h-31.9v-37.3h.2z" id="path11"/></g><g id="g13"><text y="496.967" x="979.044" id="title" style="line-height:125%;-inkscape-font-specification:'Open Sans, Bold';text-align:start" transform="scale(.91245 1.09595)" font-weight="700" font-size="181.817" font-family="Open Sans" letter-spacing="-10.307" fill="#757575">TAUG</text></g></svg>